<svg width="95" height="31" viewBox="0 0 95 31" fill="none" xmlns="http://www.w3.org/2000/svg">
<path d="M14.6984 11.0917C15.0532 13.1048 15.1593 15.1555 15.0143 17.1957C14.9368 18.6217 14.6425 20.0267 14.1421 21.36C13.9533 21.9329 13.7062 22.4839 13.4049 23.0041C13.0239 23.6525 12.5648 24.2494 12.0386 24.7809C11.9063 24.9163 11.7685 25.0572 11.6308 25.1705L11.6092 25.1898L11.5093 25.2755L11.4337 25.3418L11.377 25.386L11.2717 25.4717L11.2204 25.5104L11.1825 25.5408C10.5006 26.0626 9.7399 26.4668 8.93046 26.7372C8.18313 26.9864 7.40225 27.1142 6.61625 27.1158C5.49675 27.1265 4.39355 26.8409 3.41364 26.2868C2.56215 25.7685 1.82948 25.069 1.26527 24.2356C0.701063 23.4023 0.318508 22.4545 0.143512 21.4567C-0.0989161 19.934 -0.0336746 18.3766 0.335226 16.8807C0.472183 16.2558 0.652668 15.6417 0.875297 15.0432C1.53909 13.2849 2.55031 11.6857 3.84569 10.3456C4.41045 10.8746 4.77876 11.5874 4.88802 12.3628C5.10405 14.3164 4.49377 15.4991 2.08775 18.044C1.5251 18.619 1.12083 19.3358 0.915809 20.122C0.888806 20.2298 0.869892 20.3348 0.85369 20.4426C0.769002 21.0752 0.813087 21.7189 0.98317 22.3333C1.15325 22.9477 1.44567 23.5195 1.84203 24.0127C1.92304 24.1094 2.00675 24.2033 2.09316 24.289C2.50158 24.7466 2.97494 25.1388 3.49735 25.4523C4.31472 25.9003 5.21375 26.1705 6.138 26.2461C7.06226 26.3217 7.99182 26.2011 8.86836 25.8917C9.87234 25.5558 10.7974 25.0106 11.5852 24.2905C12.373 23.5705 13.0064 22.6912 13.4454 21.7081C13.4967 21.5976 13.5454 21.4843 13.5886 21.371C14.1857 19.699 14.4234 17.9148 14.2853 16.1402C14.207 14.8718 13.6858 13.7555 13.0782 12.6612C11.9762 10.6914 11.4794 8.42767 11.6524 6.16482C11.7128 5.07392 12.0557 4.01909 12.6461 3.10866C12.684 3.19432 12.7163 3.24959 12.738 3.31038C13.5969 5.84537 14.2525 8.44775 14.6984 11.0917ZM16.8587 2.24929C16.8128 1.95915 16.7453 1.67453 16.6724 1.32636C16.5779 1.47005 16.5239 1.54742 16.4752 1.62756C16.4266 1.70769 16.3483 1.84309 16.2916 1.95638C15.7724 3.05925 15.4793 4.25917 15.4302 5.4823C15.2729 7.56889 15.5708 9.66517 16.3024 11.6195C16.9397 13.2774 17.2772 14.963 17.072 16.7426C16.8306 18.9915 16.2064 21.1798 15.2277 23.2086C15.2974 23.1365 15.3615 23.0589 15.4194 22.9765C15.8116 22.3587 16.1721 21.7204 16.4995 21.0643C17.4069 19.0499 17.766 16.8945 17.9145 14.7088C18.0543 12.2564 17.9639 9.796 17.6445 7.36131C17.4474 5.64533 17.1314 3.95145 16.8614 2.24929H16.8587ZM24.6195 7.30052C24.4737 5.57625 24.1686 3.86303 23.9066 2.14981C23.8013 1.45071 23.615 0.768185 23.453 0C23.3368 0.135399 23.2666 0.207244 23.2072 0.276325C22.6121 1.11763 22.2696 2.11822 22.2216 3.15564C22.0727 5.02215 22.413 6.89552 23.2072 8.58267C23.4541 9.13611 23.6354 9.71775 23.7473 10.3152C24.0173 11.6969 23.7473 13.0564 23.3422 14.3855C23.011 15.4162 22.5633 16.4039 22.0083 17.3284C22.0658 17.2869 22.12 17.2407 22.1703 17.1902C22.8744 16.4343 23.4251 15.543 23.7905 14.5679C24.6924 12.2246 24.8274 9.77086 24.6222 7.30052H24.6195ZM18.9056 4.7832C18.5896 4.97662 18.4087 5.18386 18.4924 5.5873C18.5572 5.89402 18.5572 6.21456 18.595 6.52681C18.794 7.86295 19.1939 9.15953 19.7805 10.3705C20.2685 11.4976 20.445 12.7401 20.2908 13.9627C20.0957 15.9278 19.4828 17.8254 18.4951 19.5224C18.4642 19.5879 18.4371 19.6553 18.4141 19.7241L18.5005 19.7932C18.5307 19.7272 18.5668 19.6643 18.6085 19.6053C19.197 18.8858 19.68 18.0825 20.0424 17.2206C20.8876 15.2559 21.1469 13.1697 21.1928 11.0558C21.2131 8.60068 20.9823 6.15014 20.5042 3.74421C19.9398 4.10343 19.4348 4.46266 18.9083 4.7832H18.9056ZM20.5015 2.52285C20.3746 1.85138 20.2044 1.18544 20.0343 0.455939C19.2279 1.4116 18.7532 2.61344 18.6841 3.87408C19.2728 3.53697 19.7994 3.25512 20.3043 2.93458C20.3663 2.88624 20.4165 2.82396 20.4512 2.75257C20.4858 2.68117 20.504 2.60257 20.5042 2.52285H20.5015ZM7.46687 18.3259C7.88188 18.3946 8.30227 18.4233 8.72253 18.4116C8.76953 18.4016 8.81378 18.381 8.85207 18.3514C8.89037 18.3218 8.92176 18.2838 8.94396 18.2402C9.13658 17.8202 9.31661 17.3956 9.48403 16.9664C9.53799 16.7917 9.5804 16.6136 9.61095 16.4331C8.80085 16.3391 7.97453 16.3778 7.41286 15.5765C7.22114 16.1485 7.05911 16.6597 6.87279 17.1626C6.67296 17.7594 6.86199 18.1933 7.46687 18.3259Z" fill="white"/>
<path d="M30.0604 15.696H32.7117L36.9077 26.7393H34.4593L33.5371 24.1203H29.2765L28.3543 26.7393H25.8782L30.0604 15.696ZM32.827 22.1514L31.3883 18.126L29.9682 22.1514H32.827Z" fill="white"/>
<path d="M36.9098 22.731C36.934 21.6188 37.3941 20.5606 38.191 19.7843C38.9879 19.0081 40.0579 18.576 41.1703 18.5811C41.9289 18.5803 42.6742 18.7799 43.3308 19.1596C43.9875 19.5393 44.5322 20.0858 44.9098 20.7436L42.9548 21.6889C42.7217 21.2993 42.3673 20.9968 41.9458 20.828C41.5244 20.6591 41.0592 20.6331 40.6216 20.754C40.1839 20.8749 39.798 21.136 39.5231 21.4973C39.2481 21.8585 39.0991 22.3 39.0991 22.754C39.0991 23.2081 39.2481 23.6495 39.5231 24.0108C39.798 24.3721 40.1839 24.6332 40.6216 24.7541C41.0592 24.875 41.5244 24.849 41.9458 24.6801C42.3673 24.5112 42.7217 24.2088 42.9548 23.8192L44.9098 24.7414C44.5322 25.3992 43.9875 25.9457 43.3308 26.3254C42.6742 26.7051 41.9289 26.9047 41.1703 26.9039C40.0543 26.9077 38.9816 26.472 38.1843 25.6911C37.387 24.9102 36.9292 23.8468 36.9098 22.731Z" fill="white"/>
<path d="M45.31 22.7311C45.2947 22.1967 45.3857 21.6645 45.5779 21.1656C45.77 20.6666 46.0594 20.2108 46.4292 19.8247C46.799 19.4386 47.2419 19.1298 47.7321 18.9163C48.2223 18.7029 48.7501 18.589 49.2847 18.5812C50.1939 18.5722 51.0772 18.884 51.7792 19.4619V18.7519H53.891V26.7519H51.7792V26.0418C51.0788 26.6231 50.1948 26.9369 49.2847 26.9271C48.7462 26.9189 48.2149 26.8031 47.7218 26.5866C47.2288 26.37 46.784 26.0571 46.4137 25.6661C46.0434 25.2752 45.755 24.8141 45.5654 24.3101C45.3759 23.8061 45.289 23.2692 45.31 22.7311ZM49.5705 24.8153C49.9801 24.8135 50.38 24.6905 50.7198 24.4618C51.0596 24.2331 51.3242 23.9089 51.4801 23.5301C51.636 23.1514 51.6763 22.7349 51.5959 22.3333C51.5156 21.9317 51.3181 21.5628 51.0285 21.2732C50.7389 20.9835 50.37 20.7861 49.9684 20.7057C49.5667 20.6254 49.1503 20.6657 48.7715 20.8216C48.3928 20.9775 48.0686 21.242 47.8399 21.5818C47.6112 21.9216 47.4882 22.3215 47.4864 22.7311C47.4864 23.0048 47.5403 23.2758 47.645 23.5287C47.7498 23.7816 47.9033 24.0113 48.0968 24.2049C48.2904 24.3984 48.5201 24.5519 48.773 24.6566C49.0258 24.7614 49.2969 24.8153 49.5705 24.8153Z" fill="white"/>
<path d="M54.6857 22.7317C54.6722 22.1962 54.7651 21.6633 54.9591 21.164C55.153 20.6647 55.4442 20.2088 55.8156 19.8228C56.187 19.4368 56.6313 19.1284 57.1228 18.9153C57.6143 18.7023 58.1431 18.5889 58.6788 18.5818C59.5834 18.5752 60.4615 18.8869 61.1595 19.4625V14.9852H63.2713V26.7386H61.1595V26.0285C60.4632 26.6075 59.5843 26.9211 58.6788 26.9138C58.1405 26.9061 57.6092 26.7913 57.1159 26.576C56.6225 26.3608 56.1769 26.0494 55.8052 25.6601C55.4335 25.2708 55.143 24.8113 54.9508 24.3085C54.7586 23.8057 54.6685 23.2697 54.6857 22.7317ZM58.9462 24.8158C59.356 24.8149 59.7563 24.6927 60.0968 24.4645C60.4372 24.2364 60.7024 23.9125 60.859 23.5338C61.0156 23.1552 61.0566 22.7386 60.9767 22.3366C60.8969 21.9347 60.6998 21.5654 60.4104 21.2753C60.1209 20.9852 59.7521 20.7873 59.3503 20.7066C58.9486 20.6259 58.5319 20.6659 58.1528 20.8217C57.7738 20.9775 57.4494 21.242 57.2205 21.5819C56.9916 21.9218 56.8685 22.3219 56.8667 22.7317C56.8666 23.2836 57.0856 23.813 57.4755 24.2038C57.8653 24.5945 58.3942 24.8146 58.9462 24.8158Z" fill="white"/>
<path d="M64.0668 22.7309C64.074 21.6326 64.5136 20.5812 65.2903 19.8045C66.0669 19.0278 67.1183 18.5883 68.2166 18.5811C68.8274 18.5846 69.4296 18.7242 69.9795 18.9898C70.5295 19.2554 71.0133 19.6402 71.3958 20.1164C71.7782 20.5925 72.0498 21.1479 72.1906 21.7421C72.3314 22.3364 72.3379 22.9546 72.2097 23.5517H66.3538C66.4853 23.9789 66.755 24.3502 67.1206 24.6073C67.4862 24.8644 67.9269 24.9927 68.3734 24.9719C68.7305 24.9919 69.0872 24.9261 69.4137 24.7802C69.7401 24.6342 70.0269 24.4121 70.2501 24.1327L72.0023 24.9719C71.2922 26.2353 70.0288 26.9269 68.3734 26.9269C67.2487 26.932 66.1671 26.495 65.3615 25.7102C64.5559 24.9253 64.0909 23.8554 64.0668 22.7309ZM70.0933 21.8548C69.9783 21.4593 69.7342 21.1137 69.4 20.873C69.0657 20.6324 68.6605 20.5105 68.2489 20.5269C67.8414 20.5284 67.4446 20.6572 67.1139 20.8953C66.7833 21.1334 66.5352 21.4689 66.4045 21.8548H70.0933Z" fill="white"/>
<path d="M73.2255 18.7381H75.3558V19.3883C75.6147 19.1208 75.9261 18.9098 76.2705 18.7685C76.6149 18.6273 76.9848 18.5588 77.357 18.5675C77.9047 18.5401 78.4504 18.6528 78.9425 18.8948C79.4346 19.1368 79.8569 19.5003 80.1696 19.9508C80.4833 19.5124 80.8993 19.1573 81.3815 18.9162C81.8636 18.6751 82.3973 18.5554 82.9362 18.5675C85.3017 18.5675 86.4728 20.3658 86.4728 22.6067V26.7566H84.3564V22.6067C84.3564 21.6292 83.8031 20.6655 82.6503 20.6655C81.4976 20.6655 80.9166 21.7398 80.9166 22.9064V26.7381H78.8186V22.5883C78.8186 21.6107 78.2515 20.6471 77.0987 20.6471C75.946 20.6471 75.3788 21.7214 75.3788 22.888V26.7197H73.2624L73.2255 18.7381Z" fill="white"/>
<path d="M89.4751 26.7386L86.1967 18.7385H88.4377L90.5679 24.0734L92.7581 18.7385H94.9991L90.1852 30.4965H87.9304L89.4751 26.7386Z" fill="white"/>
<g clip-path="url(#clip0_163_324)">
<path d="M67.3956 11.2675V3.21831H69.5363V3.9319C70.1523 3.37962 70.9572 3.08574 71.7841 3.11128C72.3627 3.10155 72.9337 3.24429 73.4396 3.52515C73.9008 3.78964 74.2789 4.17765 74.5314 4.64548C74.8095 5.15453 74.9474 5.7283 74.931 6.30812V11.3032H72.7902V6.60069C72.8093 6.37647 72.7824 6.15072 72.7112 5.93724C72.6401 5.72376 72.5261 5.52702 72.3764 5.35906C72.216 5.20168 72.0248 5.07923 71.8148 4.9994C71.6048 4.91957 71.3805 4.8841 71.1561 4.89523C70.8249 4.88929 70.497 4.96269 70.1999 5.10931C69.9159 5.24007 69.6702 5.44154 69.4864 5.69444V11.2604L67.3956 11.2675Z" fill="white"/>
<path d="M48.4857 11.2532V0H50.6264V3.88902C51.1606 3.43912 51.8174 3.15984 52.512 3.08733C53.2066 3.01482 53.907 3.1524 54.5226 3.48228C54.9938 3.75537 55.3756 4.15945 55.6215 4.64542C55.8996 5.15447 56.0375 5.72824 56.0211 6.30806V11.3031H53.8803V6.58636C53.8958 6.36459 53.8672 6.14195 53.7961 5.9313C53.7251 5.72064 53.613 5.52614 53.4665 5.359C53.3061 5.20162 53.1149 5.07917 52.9049 4.99934C52.6949 4.91951 52.4706 4.88404 52.2462 4.89517C51.915 4.88923 51.5871 4.96263 51.29 5.10925C51.006 5.24001 50.7603 5.44148 50.5765 5.69438V11.2603L48.4857 11.2532Z" fill="white"/>
<path d="M45.4101 11.2532C44.6822 11.3046 43.9601 11.0918 43.3764 10.6538C43.1416 10.4213 42.9596 10.1411 42.8426 9.83203C42.7257 9.523 42.6765 9.19243 42.6985 8.86274V4.85955H41.0216V3.097H42.67V0.570923H44.8107V3.097H47.1085V4.85955H44.7822V8.42746C44.7692 8.57056 44.7845 8.71481 44.8274 8.85196C44.8703 8.98911 44.9398 9.11644 45.0319 9.22667C45.2802 9.4104 45.5882 9.49442 45.8954 9.46215C46.0783 9.47392 46.2619 9.47392 46.4448 9.46215C46.6391 9.42886 46.8301 9.37872 47.0157 9.3123V11.0534C46.751 11.1365 46.4784 11.1915 46.2022 11.2176C45.9392 11.246 45.6746 11.2579 45.4101 11.2532Z" fill="white"/>
<path d="M35.056 0.214111H37.7034L41.8993 11.2532H39.4517L38.5312 8.63438H34.2497L33.3506 11.2532H30.8745L35.056 0.214111ZM37.8176 6.63635L36.3904 2.61175L34.9633 6.63635H37.8176Z" fill="white"/>
<path d="M57.4126 7.23567C57.3926 6.69985 57.4825 6.16561 57.6766 5.66579C57.8701 5.16784 58.1585 4.71222 58.5258 4.32426C58.8965 3.93972 59.3394 3.63212 59.8292 3.41906C60.319 3.20599 60.846 3.09167 61.3801 3.08262C62.2884 3.07599 63.17 3.38923 63.8705 3.96746V3.25388H66.0112V11.2531H63.8705V10.5396C63.17 11.1178 62.2884 11.431 61.3801 11.4244C60.8394 11.4146 60.3059 11.2982 59.8102 11.0819C59.3172 10.8664 58.873 10.5533 58.5044 10.1614C58.1331 9.77169 57.8444 9.31106 57.6556 8.80709C57.4668 8.30312 57.3817 7.7662 57.4054 7.22853L57.4126 7.23567ZM61.6941 9.31933C62.1033 9.31265 62.502 9.18883 62.8429 8.96254C63.1801 8.73364 63.443 8.4112 63.5993 8.03488C63.7575 7.65596 63.7973 7.23803 63.7135 6.83606C63.6311 6.43504 63.4355 6.06604 63.1498 5.77283C62.8585 5.48443 62.4887 5.28834 62.0865 5.2091C61.6829 5.12554 61.2635 5.16444 60.882 5.32082C60.5006 5.4772 60.1746 5.74392 59.9458 6.0868C59.7173 6.42672 59.5932 6.82609 59.589 7.23567C59.5897 7.50806 59.6456 7.77749 59.7531 8.02774C59.8544 8.28244 60.0075 8.51329 60.2027 8.70565C60.4077 8.90389 60.6504 9.05917 60.9163 9.16234C61.1568 9.2601 61.4131 9.3133 61.6727 9.31933H61.6941Z" fill="white"/>
</g>
<defs>
<clipPath id="clip0_163_324">
<rect width="44.0637" height="11.4244" fill="white" transform="translate(30.8745)"/>
</clipPath>
</defs>
</svg>
