<svg width="132" height="43" viewBox="0 0 132 43" fill="none" xmlns="http://www.w3.org/2000/svg">
<path d="M20.5981 17.619C21.0952 20.3787 21.244 23.1899 21.0408 25.9867C20.9322 27.9415 20.5198 29.8675 19.8185 31.6952C19.5538 32.4805 19.2076 33.236 18.7854 33.949C18.2514 34.8379 17.6081 35.6561 16.8706 36.3847C16.6852 36.5703 16.4922 36.7635 16.2992 36.9188L16.2689 36.9453L16.1289 37.0627L16.023 37.1537L15.9435 37.2143L15.7959 37.3317L15.724 37.3847L15.671 37.4264C14.7154 38.1418 13.6493 38.6958 12.515 39.0666C11.4677 39.4081 10.3734 39.5833 9.27189 39.5855C7.70304 39.6001 6.15704 39.2087 4.78381 38.4491C3.59055 37.7386 2.56379 36.7797 1.77312 35.6373C0.982456 34.4949 0.446351 33.1957 0.201115 31.8277C-0.138619 29.7404 -0.0471909 27.6055 0.46978 25.5549C0.661708 24.6982 0.914636 23.8564 1.22663 23.0358C2.15685 20.6255 3.57395 18.4333 5.38927 16.5963C6.18072 17.3214 6.69686 18.2985 6.84998 19.3615C7.15272 22.0396 6.29748 23.6609 2.92574 27.1496C2.13725 27.9378 1.57071 28.9204 1.2834 29.9981C1.24556 30.1459 1.21905 30.2898 1.19634 30.4376C1.07767 31.3048 1.13945 32.1873 1.3778 33.0295C1.61615 33.8717 2.02593 34.6555 2.58138 35.3316C2.69491 35.4642 2.81222 35.593 2.93331 35.7104C3.50567 36.3377 4.16903 36.8753 4.90112 37.3052C6.04657 37.9192 7.30644 38.2897 8.60168 38.3933C9.89692 38.497 11.1996 38.3315 12.4279 37.9075C13.8349 37.447 15.1313 36.6996 16.2352 35.7125C17.3392 34.7255 18.2269 33.5201 18.8422 32.1725C18.9141 32.0209 18.9822 31.8656 19.0428 31.7103C19.8796 29.4182 20.2126 26.9724 20.0191 24.5397C19.9094 22.801 19.179 21.2706 18.3275 19.7706C16.7832 17.0703 16.087 13.9671 16.3295 10.8651C16.414 9.3696 16.8947 7.9236 17.7221 6.67554C17.7751 6.79297 17.8204 6.86873 17.8507 6.95207C19.0544 10.4271 19.9732 13.9946 20.5981 17.619ZM23.6255 5.49748C23.5611 5.09974 23.4665 4.70958 23.3643 4.2323C23.2319 4.42927 23.1562 4.53533 23.0881 4.64518C23.02 4.75504 22.9102 4.94065 22.8308 5.09595C22.1032 6.60781 21.6924 8.25271 21.6236 9.92942C21.4032 12.7898 21.8207 15.6635 22.8459 18.3425C23.739 20.6153 24.212 22.926 23.9244 25.3655C23.5861 28.4484 22.7114 31.4483 21.3398 34.2293C21.4375 34.1305 21.5274 34.0241 21.6085 33.9111C22.1581 33.0642 22.6633 32.1893 23.1221 31.2899C24.3936 28.5284 24.897 25.5738 25.1051 22.5775C25.301 19.2157 25.1743 15.8428 24.7267 12.5052C24.4504 10.1529 24.0077 7.83088 23.6292 5.49748H23.6255ZM34.5013 12.4219C34.297 10.0582 33.8694 7.70966 33.5023 5.36111C33.3547 4.40275 33.0936 3.46712 32.8665 2.41406C32.7038 2.59967 32.6054 2.69816 32.5222 2.79286C31.6882 3.94616 31.2082 5.31781 31.1409 6.73994C30.9323 9.29863 31.4091 11.8667 32.5222 14.1795C32.8681 14.9382 33.1222 15.7356 33.279 16.5546C33.6574 18.4486 33.279 20.3123 32.7114 22.1343C32.2472 23.5473 31.6198 24.9012 30.842 26.1685C30.9227 26.1116 30.9986 26.0483 31.069 25.9791C32.0558 24.9428 32.8275 23.721 33.3396 22.3843C34.6035 19.1721 34.7927 15.8084 34.5051 12.4219H34.5013ZM26.4939 8.97106C26.0511 9.23622 25.7976 9.52032 25.9149 10.0734C26.0057 10.4938 26.0057 10.9332 26.0587 11.3613C26.3376 13.1929 26.898 14.9703 27.72 16.6304C28.4038 18.1755 28.6512 19.8787 28.4352 21.5547C28.1618 24.2485 27.3028 26.8498 25.9187 29.1762C25.8754 29.266 25.8375 29.3583 25.8052 29.4527L25.9263 29.5474C25.9685 29.4569 26.0192 29.3707 26.0776 29.2898C26.9023 28.3035 27.5792 27.2022 28.087 26.0208C29.2715 23.3275 29.6348 20.4676 29.6991 17.5698C29.7277 14.2042 29.4043 10.8449 28.7342 7.54678C27.9433 8.03922 27.2356 8.53166 26.4977 8.97106H26.4939ZM28.7304 5.87249C28.5525 4.95201 28.3141 4.03911 28.0757 3.03908C26.9456 4.34914 26.2804 5.99667 26.1836 7.72482C27.0086 7.26268 27.7465 6.87631 28.4541 6.4369C28.5409 6.37064 28.6113 6.28527 28.6599 6.18739C28.7085 6.08952 28.7339 5.98177 28.7342 5.87249H28.7304ZM10.4639 27.536C11.0455 27.6302 11.6346 27.6695 12.2236 27.6534C12.2895 27.6397 12.3515 27.6115 12.4051 27.5709C12.4588 27.5303 12.5028 27.4782 12.5339 27.4185C12.8038 26.8428 13.0561 26.2607 13.2907 25.6723C13.3664 25.4329 13.4258 25.1886 13.4686 24.9412C12.3333 24.8124 11.1754 24.8654 10.3882 23.7669C10.1196 24.551 9.89251 25.2518 9.6314 25.9412C9.35137 26.7594 9.61626 27.3541 10.4639 27.536Z" fill="white"/>
<path d="M40.483 21.9961H44.1985L50.0786 37.4719H46.6475L45.3551 33.8017H39.3845L38.0921 37.4719H34.6222L40.483 21.9961ZM44.36 31.0425L42.344 25.4014L40.3537 31.0425H44.36Z" fill="white"/>
<path d="M50.0831 31.8547C50.117 30.296 50.7618 28.8131 51.8786 27.7253C52.9954 26.6375 54.4948 26.032 56.0538 26.0391C57.1168 26.038 58.1612 26.3177 59.0814 26.8498C60.0017 27.382 60.765 28.1478 61.2942 29.0697L58.5545 30.3943C58.2278 29.8483 57.7312 29.4245 57.1405 29.1878C56.5499 28.9512 55.898 28.9148 55.2847 29.0842C54.6715 29.2536 54.1307 29.6195 53.7453 30.1258C53.3599 30.632 53.1512 31.2507 53.1512 31.887C53.1512 32.5233 53.3599 33.1419 53.7453 33.6482C54.1307 34.1545 54.6715 34.5204 55.2847 34.6898C55.898 34.8592 56.5499 34.8228 57.1405 34.5862C57.7312 34.3495 58.2278 33.9257 58.5545 33.3797L61.2942 34.672C60.765 35.5939 60.0017 36.3597 59.0814 36.8918C58.1612 37.424 57.1168 37.7037 56.0538 37.7026C54.4898 37.7079 52.9866 37.0973 51.8693 36.003C50.7519 34.9086 50.1103 33.4184 50.0831 31.8547Z" fill="white"/>
<path d="M61.853 31.8549C61.8316 31.1059 61.9592 30.3602 62.2284 29.661C62.4977 28.9617 62.9032 28.323 63.4215 27.7819C63.9397 27.2408 64.5604 26.8081 65.2473 26.5089C65.9343 26.2098 66.6739 26.0502 67.4231 26.0393C68.6972 26.0266 69.9351 26.4636 70.9188 27.2735V26.2784H73.8783V37.4895H70.9188V36.4944C69.9374 37.3091 68.6985 37.7488 67.4231 37.7351C66.6685 37.7236 65.9239 37.5613 65.2329 37.2578C64.542 36.9544 63.9187 36.5158 63.3998 35.9679C62.8808 35.4201 62.4766 34.774 62.211 34.0676C61.9454 33.3613 61.8237 32.609 61.853 31.8549ZM67.8237 34.7756C68.3977 34.773 68.9581 34.6007 69.4343 34.2802C69.9105 33.9597 70.2812 33.5054 70.4996 32.9746C70.7181 32.4438 70.7746 31.8602 70.662 31.2974C70.5494 30.7345 70.2727 30.2176 69.8668 29.8117C69.461 29.4059 68.944 29.1292 68.3812 29.0166C67.8183 28.904 67.2348 28.9605 66.704 29.1789C66.1732 29.3974 65.7189 29.7681 65.3984 30.2443C65.0779 30.7205 64.9055 31.2809 64.903 31.8549C64.903 32.2384 64.9785 32.6182 65.1253 32.9726C65.2721 33.327 65.4872 33.6489 65.7584 33.9201C66.0297 34.1914 66.3516 34.4065 66.706 34.5533C67.0603 34.7 67.4401 34.7756 67.8237 34.7756Z" fill="white"/>
<path d="M74.9923 31.8557C74.9734 31.1053 75.1036 30.3585 75.3754 29.6588C75.6472 28.9591 76.0552 28.3202 76.5757 27.7793C77.0962 27.2384 77.7189 26.8061 78.4076 26.5076C79.0964 26.2091 79.8375 26.0502 80.5881 26.0401C81.8559 26.0309 83.0865 26.4678 84.0645 27.2743V21H87.024V37.4709H84.0645V36.4758C83.0887 37.2872 81.8571 37.7267 80.5881 37.7165C79.8339 37.7057 79.0893 37.5448 78.3979 37.2432C77.7065 36.9415 77.0821 36.5051 76.5612 35.9595C76.0403 35.414 75.6332 34.7701 75.3639 34.0655C75.0945 33.3609 74.9682 32.6097 74.9923 31.8557ZM80.9629 34.7764C81.5372 34.7751 82.0982 34.6038 82.5753 34.2841C83.0523 33.9644 83.424 33.5106 83.6435 32.9799C83.8629 32.4492 83.9204 31.8654 83.8085 31.3021C83.6966 30.7389 83.4204 30.2213 83.0148 29.8148C82.6092 29.4083 82.0923 29.131 81.5292 29.0178C80.9662 28.9047 80.3823 28.9608 79.8511 29.1791C79.32 29.3974 78.8653 29.7681 78.5445 30.2444C78.2238 30.7208 78.0512 31.2814 78.0487 31.8557C78.0487 32.6292 78.3555 33.3711 78.9018 33.9187C79.4482 34.4662 80.1894 34.7747 80.9629 34.7764Z" fill="white"/>
<path d="M88.1378 31.8546C88.148 30.3154 88.7639 28.8421 89.8524 27.7536C90.9408 26.6652 92.4141 26.0492 93.9534 26.0391C94.8092 26.044 95.6532 26.2397 96.4238 26.6119C97.1945 26.9841 97.8725 27.5234 98.4085 28.1906C98.9445 28.8578 99.325 29.6362 99.5224 30.4689C99.7197 31.3017 99.7289 32.168 99.5492 33.0048H91.3428C91.5271 33.6035 91.9051 34.1239 92.4174 34.4841C92.9298 34.8444 93.5474 35.0242 94.1731 34.995C94.6735 35.0231 95.1733 34.931 95.6308 34.7264C96.0884 34.5218 96.4903 34.2106 96.803 33.819L99.2585 34.995C98.2633 36.7655 96.4928 37.7348 94.1731 37.7348C92.5969 37.7419 91.0811 37.1296 89.9522 36.0297C88.8233 34.9298 88.1717 33.4304 88.1378 31.8546ZM96.5833 30.6269C96.4221 30.0726 96.0801 29.5883 95.6116 29.251C95.1432 28.9137 94.5754 28.743 93.9986 28.7659C93.4276 28.7681 92.8715 28.9486 92.4081 29.2823C91.9446 29.6159 91.5971 30.086 91.4139 30.6269H96.5833Z" fill="white"/>
<path d="M100.974 26.2594H103.959V27.1705C104.322 26.7956 104.758 26.4999 105.241 26.302C105.724 26.104 106.242 26.0081 106.763 26.0203C107.531 25.9819 108.296 26.1398 108.985 26.479C109.675 26.8181 110.267 27.3274 110.705 27.9588C111.145 27.3445 111.728 26.8468 112.403 26.5089C113.079 26.1711 113.827 26.0034 114.582 26.0203C117.897 26.0203 119.538 28.5404 119.538 31.6808V37.4963H116.572V31.6808C116.572 30.3109 115.797 28.9604 114.182 28.9604C112.566 28.9604 111.752 30.466 111.752 32.1008V37.4705H108.812V31.6549C108.812 30.285 108.017 28.9345 106.402 28.9345C104.786 28.9345 103.991 30.4401 103.991 32.0749V37.4446H101.025L100.974 26.2594Z" fill="white"/>
<path d="M123.748 37.4709L119.153 26.2598H122.294L125.279 33.736L128.348 26.2598H131.489L124.743 42.7372H121.583L123.748 37.4709Z" fill="white"/>
<g clip-path="url(#clip0_6_189)">
<path d="M92.8019 15.7896V4.50957H95.8019V5.50957C96.665 4.73562 97.7931 4.32379 98.9519 4.35957C99.7627 4.34594 100.563 4.54598 101.272 4.93957C101.918 5.31021 102.448 5.85397 102.802 6.50957C103.192 7.22295 103.385 8.02702 103.362 8.83957V15.8396H100.362V9.24957C100.389 8.93535 100.351 8.61899 100.251 8.31982C100.151 8.02065 99.9917 7.74496 99.7819 7.50957C99.5572 7.28903 99.2892 7.11742 98.9949 7.00555C98.7006 6.89368 98.3863 6.84398 98.0719 6.85957C97.6077 6.85125 97.1482 6.95411 96.7319 7.15957C96.3339 7.34282 95.9895 7.62516 95.7319 7.97957V15.7796L92.8019 15.7896Z" fill="white"/>
<path d="M66.3019 15.77V0H69.3019V5.45C70.0504 4.81951 70.9709 4.42815 71.9443 4.32653C72.9177 4.22491 73.8993 4.41771 74.7619 4.88C75.4223 5.2627 75.9573 5.82897 76.3019 6.51C76.6916 7.22338 76.8848 8.02745 76.8619 8.84V15.84H73.8619V9.23C73.8835 8.91921 73.8434 8.60722 73.7439 8.31201C73.6443 8.0168 73.4873 7.74422 73.2819 7.51C73.0572 7.28946 72.7892 7.11785 72.4949 7.00598C72.2006 6.89411 71.8863 6.8444 71.5719 6.86C71.1077 6.85167 70.6482 6.95454 70.2319 7.16C69.8339 7.34325 69.4895 7.62559 69.2319 7.98V15.78L66.3019 15.77Z" fill="white"/>
<path d="M61.9909 15.7708C60.9708 15.8428 59.9589 15.5446 59.1409 14.9308C58.8119 14.6049 58.5568 14.2122 58.3929 13.7791C58.229 13.3461 58.1601 12.8828 58.1909 12.4208V6.81078H55.8409V4.34078H58.1509V0.800781H61.1509V4.34078H64.3709V6.81078H61.1109V11.8108C61.0927 12.0113 61.1142 12.2135 61.1743 12.4057C61.2344 12.5979 61.3318 12.7763 61.4609 12.9308C61.8088 13.1883 62.2405 13.306 62.6709 13.2608C62.9273 13.2773 63.1845 13.2773 63.4409 13.2608C63.7132 13.2141 63.9809 13.1439 64.2409 13.0508V15.4908C63.87 15.6072 63.4879 15.6842 63.1009 15.7208C62.7324 15.7606 62.3616 15.7773 61.9909 15.7708Z" fill="white"/>
<path d="M47.4822 0.300781H51.1922L57.0722 15.7708H53.6422L52.3522 12.1008H46.3522L45.0922 15.7708H41.6222L47.4822 0.300781ZM51.3522 9.30078L49.3522 3.66078L47.3522 9.30078H51.3522Z" fill="white"/>
<path d="M78.8095 10.1405C78.7816 9.38957 78.9075 8.64089 79.1795 7.94046C79.4507 7.24264 79.8549 6.60414 80.3695 6.06046C80.889 5.52158 81.5098 5.09051 82.1962 4.79193C82.8826 4.49335 83.6211 4.33313 84.3695 4.32046C85.6424 4.31116 86.8779 4.75014 87.8595 5.56046V4.56046H90.8595V15.7705H87.8595V14.7705C86.8779 15.5808 85.6424 16.0198 84.3695 16.0105C83.6118 15.9968 82.8641 15.8336 82.1695 15.5305C81.4786 15.2285 80.8561 14.7897 80.3395 14.2405C79.8193 13.6944 79.4147 13.0489 79.1501 12.3426C78.8855 11.6364 78.7662 10.8839 78.7995 10.1305L78.8095 10.1405ZM84.8095 13.0605C85.383 13.0511 85.9417 12.8776 86.4195 12.5605C86.892 12.2397 87.2604 11.7878 87.4795 11.2605C87.7012 10.7295 87.757 10.1438 87.6395 9.58046C87.5241 9.01847 87.2499 8.50137 86.8495 8.09046C86.4414 7.68631 85.9231 7.41151 85.3595 7.30046C84.7938 7.18336 84.2061 7.23788 83.6716 7.45703C83.1371 7.67617 82.6802 8.04995 82.3595 8.53046C82.0393 9.00681 81.8655 9.56649 81.8595 10.1405C81.8605 10.5222 81.9388 10.8998 82.0895 11.2505C82.2314 11.6074 82.4459 11.9309 82.7195 12.2005C83.0069 12.4783 83.3469 12.6959 83.7195 12.8405C84.0566 12.9775 84.4158 13.052 84.7795 13.0605H84.8095Z" fill="white"/>
</g>
<defs>
<clipPath id="clip0_6_189">
<rect width="61.75" height="16.01" fill="white" transform="translate(41.6222)"/>
</clipPath>
</defs>
</svg>
